#N canvas 268 162 802 561 10;
#X declare -lib mrpeach;
#X symbolatom 9 8 15 0 0 0 - - -;
#N canvas 245 239 757 484 guts 1;
#X obj 652 13 import mrpeach;
#X obj 27 408 udpsend;
#X msg 71 328 connect 192.168.0.8 10000;
#X msg 101 382 disconnect;
#X obj 27 432 s connected;
#X obj 71 303 r connect;
#X obj 101 359 r disconnect;
#X obj 27 276 packOSC;
#X msg 27 93 sendtyped /pn s \$1;
#X obj 27 29 r pn;
#X obj 27 58 route symbol;
#X obj 175 31 r kn;
#X obj 323 33 r kp;
#X msg 175 95 sendtyped /kn is \$1 2;
#X msg 323 97 sendtyped /kp iii \$1 \$2 \$3;
#X connect 1 0 4 0;
#X connect 2 0 1 0;
#X connect 3 0 1 0;
#X connect 5 0 2 0;
#X connect 6 0 3 0;
#X connect 7 0 1 0;
#X connect 8 0 7 0;
#X connect 9 0 10 0;
#X connect 10 0 8 0;
#X connect 11 0 13 0;
#X connect 12 0 14 0;
#X connect 13 0 7 0;
#X restore 281 196 pd guts;
