#N canvas 234 90 847 603 10;
#X obj 238 100 hsl 100 30 0 255 0 0 \$0-p1 nil empty -2 -8 0 10 -262144
-1 -1 9900 1;
#X obj 351 100 hsl 100 30 0 255 0 0 \$0-p2 nil empty -2 -8 0 10 -262144
-1 -1 9900 1;
#X obj 460 100 nbx 3 30 0 7 0 0 \$0-c nil empty 0 -8 0 16 -262144 -1
-1 0 256;
#X obj 527 100 tgl 30 0 \$0-e nil empty 17 7 0 10 -262144 -1 -1 0 1
;
#X obj 565 100 tgl 30 0 \$0-s nil empty 17 7 0 10 -262144 -1 -1 0 1
;
#X obj 604 100 nbx 3 30 0 3 0 0 \$0-l nil empty 0 -8 0 16 -262144 -1
-1 0 256;
#X symbolatom 18 106 30 0 0 0 - - -;
#X obj 671 100 bng 30 250 50 0 up nil empty 17 7 0 10 -262144 -1 -1
;
#X obj 735 31 t b b b b b b;
#N canvas 396 278 754 397 gutsy 0;
#X obj 476 -22 r \$0-s;
#X obj 259 34 << 8;
#X obj 238 84 i;
#X obj 350 89 i;
#X obj 415 87 i;
#X obj 453 86 i;
#X obj 494 85 i;
#X obj 125 86 i;
#X obj 125 142 +;
#X obj 226 210 +;
#X obj 453 125 +;
#X obj 432 181 +;
#X obj 324 280 +;
#X obj 365 36 << 16;
#X obj 430 6 << 19;
#X obj 468 6 << 20;
#X obj 509 6 << 21;
#X obj 97 58 r \$0-up;
#X obj 205 57 r \$0-up;
#X obj 313 65 r \$0-up;
#X obj 381 61 r \$0-up;
#X obj 443 62 r \$0-up;
#X obj 500 61 r \$0-up;
#X obj 148 58 r \$0-p1;
#X obj 259 10 r \$0-p2;
#X obj 364 15 r \$0-c;
#X obj 429 -21 r \$0-e;
#X obj 526 -20 r \$0-l;
#X obj 320 311 outlet;
#X connect 0 0 15 0;
#X connect 1 0 2 1;
#X connect 2 0 8 1;
#X connect 3 0 9 1;
#X connect 4 0 11 0;
#X connect 5 0 10 0;
#X connect 6 0 10 1;
#X connect 7 0 8 0;
#X connect 8 0 9 0;
#X connect 9 0 12 0;
#X connect 10 0 11 1;
#X connect 11 0 12 1;
#X connect 12 0 28 0;
#X connect 13 0 3 1;
#X connect 14 0 4 1;
#X connect 15 0 5 1;
#X connect 16 0 6 1;
#X connect 17 0 7 0;
#X connect 18 0 2 0;
#X connect 19 0 3 0;
#X connect 20 0 4 0;
#X connect 21 0 5 0;
#X connect 22 0 6 0;
#X connect 23 0 7 1;
#X connect 24 0 1 0;
#X connect 25 0 13 0;
#X connect 26 0 14 0;
#X connect 27 0 16 0;
#X restore 37 537 pd gutsy;
