#N canvas 196 115 847 603 10;
#X obj 107 142 hsl 100 30 0 255 0 0 \$0-p1 nil empty -2 -8 0 10 -262144
-1 -1 0 1;
#X obj 220 142 hsl 100 30 0 255 0 0 \$0-p2 \$0-l2p1 empty -2 -8 0 10
-262144 -1 -1 0 1;
#X obj 329 142 nbx 3 30 0 7 0 0 \$0-c nil empty 0 -8 0 16 -262144 -1
-1 0 256;
#X obj 396 142 tgl 30 0 \$0-e nil empty 17 7 0 10 -262144 -1 -1 0 1
;
#X obj 434 142 tgl 30 0 \$0-s nil empty 17 7 0 10 -262144 -1 -1 0 1
;
#X obj 473 142 nbx 3 30 0 7 0 0 \$0-l nil empty 0 -8 0 16 -262144 -1
-1 0 256;
#X obj 558 142 bng 30 250 50 0 \$0-up nil update -4 -10 0 10 -262144
-1 -1;
#N canvas 225 170 754 397 gutsy 0;
#X obj 477 16 r \$0-s;
#X obj 176 30 << 8;
#X obj 161 83 i;
#X obj 241 105 i;
#X obj 355 127 i;
#X obj 453 86 i;
#X obj 517 120 i;
#X obj 51 84 i;
#X obj 51 140 +;
#X obj 226 210 +;
#X obj 448 157 +;
#X obj 432 181 +;
#X obj 324 280 +;
#X obj 256 52 << 16;
#X obj 370 46 << 19;
#X obj 477 39 << 20;
#X obj 563 89 << 21;
#X obj 9 50 r \$0-up;
#X obj 128 56 r \$0-up;
#X obj 204 81 r \$0-up;
#X obj 321 101 r \$0-up;
#X obj 419 63 r \$0-up;
#X obj 500 85 r \$0-up;
#X obj 66 11 r \$0-p1;
#X obj 176 6 r \$0-p2;
#X obj 255 31 r \$0-c;
#X obj 370 25 r \$0-e;
#X obj 563 63 r \$0-l;
#X obj 320 311 outlet;
#X text 67 -11 param 1;
#X text 177 -12 param 2;
#X text 257 11 curve;
#X text 357 -2 expression;
#X text 477 -3 state;
#X text 565 42 loopNum;
#X obj 610 179 i;
#X obj 593 144 r \$0-up;
#X text 658 101 knubbieNum;
#X obj 656 148 << 24;
#X obj 656 122 r \$0-k;
#X obj 521 230 +;
#X connect 0 0 15 0;
#X connect 1 0 2 1;
#X connect 2 0 8 1;
#X connect 3 0 9 1;
#X connect 4 0 11 0;
#X connect 5 0 10 0;
#X connect 6 0 10 1;
#X connect 7 0 8 0;
#X connect 8 0 9 0;
#X connect 9 0 12 0;
#X connect 10 0 11 1;
#X connect 11 0 40 0;
#X connect 12 0 28 0;
#X connect 13 0 3 1;
#X connect 14 0 4 1;
#X connect 15 0 5 1;
#X connect 16 0 6 1;
#X connect 17 0 7 0;
#X connect 18 0 2 0;
#X connect 19 0 3 0;
#X connect 20 0 4 0;
#X connect 21 0 5 0;
#X connect 22 0 6 0;
#X connect 23 0 7 1;
#X connect 24 0 1 0;
#X connect 25 0 13 0;
#X connect 26 0 14 0;
#X connect 27 0 16 0;
#X connect 35 0 40 1;
#X connect 36 0 35 0;
#X connect 38 0 35 1;
#X connect 39 0 38 0;
#X connect 40 0 12 1;
#X restore 73 250 pd gutsy;
#X obj 215 426 cnv 15 500 80 empty empty empty 20 12 0 14 -228856 -66577
0;
#X obj 215 232 r \$0-p1;
#X obj 215 268 spigot;
#X obj 282 239 r \$0-link;
#X obj 208 175 tgl 10 0 \$0-link nil linked 0 17 0 10 -262144 -1 -1
0 1;
#X obj 216 300 s \$0-l2p1;
#X floatatom 154 299 5 0 0 0 - - -;
#X obj 558 178 nbx 3 14 0 7 0 1 \$0-k \$0-up empty 0 -8 0 10 -262144
-1 -1 0 256;
#X obj 616 217 loadbang;
#X obj 73 290 outlet;
#X obj 616 240 \$1;
#X symbolatom 105 113 20 0 0 0 - nill #0-kn;
#X obj 568 359 outlet;
#X obj 568 317 r \$0-kn;
#X obj 568 338 route symbol;
#X connect 7 0 17 0;
#X connect 9 0 10 0;
#X connect 9 0 14 0;
#X connect 10 0 13 0;
#X connect 11 0 10 1;
#X connect 16 0 18 0;
#X connect 18 0 15 0;
#X connect 21 0 22 0;
#X connect 22 0 20 0;
#X coords 0 -1 1 1 500 100 2 100 100;
