#N canvas 120 106 1210 607 10;
#X declare -lib mrpeach;
#X obj -670 -34 cnv 15 1200 600 empty empty empty 20 12 0 14 -232576
-66577 0;
#N canvas 214 234 933 452 oscGuts 0;
#X obj 426 7 import mrpeach;
#X obj -330 365 udpsend;
#X obj -330 327 packOSC;
#X msg 230 243 connect 192.168.0.8 10000;
#X msg 231 291 disconnect;
#X msg -330 281 sendtyped /k i \$1;
#X obj 230 223 r connect;
#X obj 231 272 r disconnect;
#X obj -330 394 s connected;
#X obj -377 12 r knub0;
#X obj -324 13 r knub1;
#X obj -273 13 r knub2;
#X obj -258 45 r knub3;
#X obj -206 46 r knub4;
#X obj -154 46 r knub5;
#X obj -141 72 r knub6;
#X obj -90 73 r knub7;
#X obj -57 184 r pname;
#N canvas 121 180 760 304 knames 0;
#X obj 239 54 r kn0;
#X obj 330 264 outlet;
#X msg 330 231 sendtyped /kn s \$1;
#X obj 292 55 r kn1;
#X obj 340 55 r kn2;
#X obj 393 56 r kn3;
#X obj 425 84 r kn4;
#X obj 478 85 r kn5;
#X obj 526 85 r kn6;
#X obj 579 86 r kn7;
#X connect 0 0 2 0;
#X connect 2 0 1 0;
#X connect 3 0 2 0;
#X connect 4 0 2 0;
#X connect 5 0 2 0;
#X connect 6 0 2 0;
#X connect 7 0 2 0;
#X connect 8 0 2 0;
#X connect 9 0 2 0;
#X restore -63 265 pd knames;
#X msg -57 227 sendtyped /pn s \$1;
#X obj -57 206 route symbol;
#X connect 1 0 8 0;
#X connect 2 0 1 0;
#X connect 3 0 1 0;
#X connect 4 0 1 0;
#X connect 5 0 2 0;
#X connect 6 0 3 0;
#X connect 7 0 4 0;
#X connect 9 0 5 0;
#X connect 10 0 5 0;
#X connect 11 0 5 0;
#X connect 12 0 5 0;
#X connect 13 0 5 0;
#X connect 14 0 5 0;
#X connect 15 0 5 0;
#X connect 16 0 5 0;
#X connect 17 0 20 0;
#X connect 18 0 2 0;
#X connect 19 0 2 0;
#X connect 20 0 19 0;
#X restore 438 574 pd oscGuts;
#X obj -637 19 aknubbie 0;
#X obj 438 -22 bng 30 250 50 0 connect nill CONNECT 35 0 0 10 -258113
-1 -1;
#X obj 438 20 tgl 30 0 nill connected CONNECTED 30 0 0 10 -4034 -1
-1 0 1;
#X obj -637 120 s k0;
#X obj -638 256 s k1;
#X obj -639 396 s k2;
#X obj -640 541 s k3;
#X obj -103 119 s k4;
#X obj -103 256 s k5;
#X obj -104 392 s k6;
#X obj -105 535 s k7;
#X obj -171 119 s kn0;
#X obj -172 256 s kn1;
#X obj -173 395 s kn2;
#X obj -174 540 s kn3;
#X obj 363 120 s kn4;
#X obj 363 257 s kn5;
#X obj 362 394 s kn6;
#X obj 361 536 s kn7;
#X symbolatom -429 -16 20 0 0 0 PRESET_NAME nill pname;
#X obj -104 -23 bng 30 250 50 0 save nill SAVE_ALL 35 0 0 10 -258113
-1 -1;
#X obj -638 156 aknubbie 1;
#X obj -639 295 aknubbie 2;
#X obj -640 440 aknubbie 3;
#X obj -103 20 aknubbie 4;
#X obj -103 157 aknubbie 5;
#X obj -104 294 aknubbie 6;
#X obj -105 436 aknubbie 7;
#X connect 2 0 5 0;
#X connect 2 1 13 0;
#X connect 23 0 6 0;
#X connect 23 1 14 0;
#X connect 24 0 7 0;
#X connect 24 1 15 0;
#X connect 25 0 8 0;
#X connect 25 1 16 0;
#X connect 26 0 9 0;
#X connect 26 1 17 0;
#X connect 27 0 10 0;
#X connect 27 1 18 0;
#X connect 28 0 11 0;
#X connect 28 1 19 0;
#X connect 29 0 12 0;
#X connect 29 1 20 0;
