#N canvas 1 78 1351 665 10;
#X declare -lib mrpeach;
#X obj -670 -34 cnv 15 1200 600 empty empty empty 20 12 0 14 -232576
-66577 0;
#X obj -644 69 aknubbie;
#N canvas 659 305 450 300 oscGuts 0;
#X obj -33 8 import mrpeach;
#X obj -330 191 udpsend;
#X obj -330 104 packOSC;
#X msg -139 198 connect 192.168.0.8 10000;
#X msg -138 246 disconnect;
#X msg -330 78 sendtyped /k i \$1;
#X obj -139 178 r connect;
#X obj -138 227 r disconnect;
#X obj -330 220 s connected;
#X obj -382 3 r knub1;
#X obj -330 4 r knub2;
#X obj -278 4 r knub3;
#X obj -272 26 r knub4;
#X obj -220 27 r knub5;
#X obj -168 27 r knub6;
#X obj -183 54 r knub7;
#X obj -127 61 r knub8;
#X connect 1 0 8 0;
#X connect 2 0 1 0;
#X connect 3 0 1 0;
#X connect 4 0 1 0;
#X connect 5 0 2 0;
#X connect 6 0 3 0;
#X connect 7 0 4 0;
#X connect 9 0 5 0;
#X connect 10 0 5 0;
#X connect 11 0 5 0;
#X connect 12 0 5 0;
#X connect 13 0 5 0;
#X connect 14 0 5 0;
#X connect 15 0 5 0;
#X connect 16 0 5 0;
#X restore -601 535 pd oscGuts;
#X obj -644 180 aknubbie;
#X obj -644 286 aknubbie;
#X obj -644 397 aknubbie;
