#N canvas 391 38 736 642 10;
#X declare -lib mrpeach;
#X obj 187 120 hsl 255 15 0 255 0 1 slid1 auto1 slid1 -2 -8 0 10 -262144
-1 -1 12800 1;
#X obj 186 182 hsl 255 15 0 255 0 1 slid2 auto2 slid2 -2 -8 0 10 -262144
-1 -1 25400 1;
#X obj 186 244 hsl 255 15 0 255 0 1 slid3 auto3 slid3 -2 -8 0 10 -262144
-1 -1 25400 1;
#X obj 187 312 hsl 255 15 0 255 0 1 slid4 auto4 slid4 -2 -8 0 10 -262144
-1 -1 1800 1;
#X obj 29 9 bng 50 250 50 0 connect empty connect_to_knub 60 7 0 10
-262144 -1 -1;
#X obj 277 10 bng 50 250 50 0 disconnect empty disconnect 60 7 0 10
-262144 -1 -1;
#X obj 496 12 tgl 50 0 empty connected connected 60 7 0 10 -262144
-1 -1 0 1;
#N canvas 395 90 672 435 auto1 0;
#X obj 67 228 line;
#X obj 118 142 i;
#X obj 133 120 r duration1;
#X obj 269 139 bng 15 250 50 0 do1 empty empty 17 7 0 10 -262144 -1
-1;
#X obj 67 53 r do1;
#X obj 67 276 s auto1;
#X obj 67 253 i;
#X obj 251 113 nbx 5 14 -1e+37 1e+37 0 0 duration1 empty empty 0 -8
0 11 -262144 -1 -1 0 256;
#X obj 47 140 i 0;
#X obj 76 141 i 255;
#X obj 67 79 t b b b;
#X obj 58 177 pack i i i;
#X msg 67 203 \$1 \, \$2 \$3;
#X connect 0 0 6 0;
#X connect 1 0 11 2;
#X connect 2 0 1 1;
#X connect 4 0 10 0;
#X connect 6 0 5 0;
#X connect 8 0 11 0;
#X connect 9 0 11 1;
#X connect 10 0 8 0;
#X connect 10 1 9 0;
#X connect 10 2 1 0;
#X connect 11 0 12 0;
#X connect 12 0 0 0;
#X coords 0 -1 1 1 87 108 1 235 70;
#X restore 105 406 pd auto1;
#N canvas 411 191 450 300 guts 0;
#X obj 211 177 import mrpeach;
#X msg 234 127 disconnect;
#X msg 72 125 connect 192.168.8 10000;
#N canvas 310 243 450 300 gutsy 0;
#X obj 350 169 packOSC;
#X obj 351 -33 r slid1;
#X obj 362 14 r slid2;
#X obj 378 60 r slid3;
#X obj 393 108 r slid4;
#X obj 188 196 udpsend;
#X obj 188 150 inlet;
#X obj 207 172 inlet;
#X obj 188 220 outlet;
#X msg 351 -8 sendtyped /knub/turn 1 i \$1;
#X msg 362 37 sendtyped /knub/turn 2 i \$1;
#X msg 378 84 sendtyped /knub/turn 3 i \$1;
#X msg 393 131 sendtyped /knub/turn 4 i \$1;
#X connect 0 0 5 0;
#X connect 1 0 9 0;
#X connect 2 0 10 0;
#X connect 3 0 11 0;
#X connect 4 0 12 0;
#X connect 5 0 8 0;
#X connect 6 0 5 0;
#X connect 7 0 5 0;
#X connect 9 0 0 0;
#X connect 10 0 0 0;
#X connect 11 0 0 0;
#X connect 12 0 0 0;
#X restore 91 155 pd gutsy;
#X obj 72 104 r connect;
#X obj 234 105 r disconnect;
#X obj 91 180 s connected;
#X connect 1 0 3 0;
#X connect 2 0 3 0;
#X connect 3 0 6 0;
#X connect 4 0 2 0;
#X connect 5 0 1 0;
#X restore 682 621 pd guts;
#N canvas 395 90 672 435 auto2 0;
#X obj 67 228 line;
#X obj 118 142 i;
#X obj 269 139 bng 15 250 50 0 do2 empty empty 17 7 0 10 -262144 -1
-1;
#X obj 67 253 i;
#X obj 251 113 nbx 5 14 -1e+37 1e+37 0 0 duration2 empty empty 0 -8
0 11 -262144 -1 -1 0 256;
#X obj 47 140 i 0;
#X obj 76 141 i 255;
#X obj 67 79 t b b b;
#X obj 58 177 pack i i i;
#X msg 67 203 \$1 \, \$2 \$3;
#X obj 67 53 r do2;
#X obj 133 120 r duration2;
#X obj 67 276 s auto2;
#X connect 0 0 3 0;
#X connect 1 0 8 2;
#X connect 3 0 12 0;
#X connect 5 0 8 0;
#X connect 6 0 8 1;
#X connect 7 0 5 0;
#X connect 7 1 6 0;
#X connect 7 2 1 0;
#X connect 8 0 9 0;
#X connect 9 0 0 0;
#X connect 10 0 7 0;
#X connect 11 0 1 1;
#X coords 0 -1 1 1 87 108 1 235 70;
#X restore 226 408 pd auto2;
#N canvas 395 90 672 435 auto3 0;
#X obj 67 228 line;
#X obj 118 142 i;
#X obj 269 139 bng 15 250 50 0 do3 empty empty 17 7 0 10 -262144 -1
-1;
#X obj 67 253 i;
#X obj 251 113 nbx 5 14 -1e+37 1e+37 0 0 duration3 empty empty 0 -8
0 11 -262144 -1 -1 0 256;
#X obj 47 140 i 0;
#X obj 76 141 i 255;
#X obj 67 79 t b b b;
#X obj 58 177 pack i i i;
#X msg 67 203 \$1 \, \$2 \$3;
#X obj 67 53 r do3;
#X obj 133 120 r duration3;
#X obj 67 276 s auto3;
#X connect 0 0 3 0;
#X connect 1 0 8 2;
#X connect 3 0 12 0;
#X connect 5 0 8 0;
#X connect 6 0 8 1;
#X connect 7 0 5 0;
#X connect 7 1 6 0;
#X connect 7 2 1 0;
#X connect 8 0 9 0;
#X connect 9 0 0 0;
#X connect 10 0 7 0;
#X connect 11 0 1 1;
#X coords 0 -1 1 1 87 108 1 235 70;
#X restore 351 408 pd auto3;
#N canvas 395 90 672 435 auto4 0;
#X obj 67 228 line;
#X obj 118 142 i;
#X obj 269 139 bng 15 250 50 0 do4 empty empty 17 7 0 10 -262144 -1
-1;
#X obj 67 253 i;
#X obj 251 113 nbx 5 14 -1e+37 1e+37 0 0 duration4 empty empty 0 -8
0 11 -262144 -1 -1 0 256;
#X obj 47 140 i 0;
#X obj 76 141 i 255;
#X obj 67 79 t b b b;
#X obj 58 177 pack i i i;
#X msg 67 203 \$1 \, \$2 \$3;
#X obj 67 53 r do4;
#X obj 133 120 r duration4;
#X obj 67 276 s auto4;
#X connect 0 0 3 0;
#X connect 1 0 8 2;
#X connect 3 0 12 0;
#X connect 5 0 8 0;
#X connect 6 0 8 1;
#X connect 7 0 5 0;
#X connect 7 1 6 0;
#X connect 7 2 1 0;
#X connect 8 0 9 0;
#X connect 9 0 0 0;
#X connect 10 0 7 0;
#X connect 11 0 1 1;
#X coords 0 -1 1 1 87 108 1 235 70;
#X restore 479 409 pd auto4;
