#N canvas 303 92 706 598 10;
#X declare -lib mrpeach;
#X obj 16 18 import mrpeach;
#X obj 189 469 udpsend;
#X msg 189 405 connect 192.168.0.23 10000;
#X msg 209 431 disconnect;
#X floatatom 189 490 5 0 0 0 - - -;
#X obj 131 403 packOSC;
#X obj 75 101 hsl 128 15 0 255 0 0 empty empty empty -2 -8 0 10 -262144
-1 -1 12700 1;
#X floatatom 72 142 5 0 0 0 - - -;
#X obj 72 79 nbx 5 14 -1e+37 1e+37 0 0 empty empty empty 0 -8 0 10
-262144 -1 -1 0 256;
#X obj 72 122 i;
#X msg 72 169 sendtyped /turn1 i \$1;
#X obj 236 100 hsl 128 15 0 255 0 0 empty empty empty -2 -8 0 10 -262144
-1 -1 12700 1;
#X floatatom 233 141 5 0 0 0 - - -;
#X obj 233 78 nbx 5 14 -1e+37 1e+37 0 0 empty empty empty 0 -8 0 10
-262144 -1 -1 0 256;
#X obj 233 121 i;
#X obj 393 100 hsl 128 15 0 255 0 0 empty empty empty -2 -8 0 10 -262144
-1 -1 12700 1;
#X floatatom 390 141 5 0 0 0 - - -;
#X obj 390 78 nbx 5 14 -1e+37 1e+37 0 0 empty empty empty 0 -8 0 10
-262144 -1 -1 0 256;
#X obj 390 121 i;
#X msg 233 168 sendtyped /turn2 i \$1;
#X msg 390 168 sendtyped /turn3 i \$1;
#X connect 1 0 4 0;
#X connect 2 0 1 0;
#X connect 3 0 1 0;
#X connect 5 0 1 0;
#X connect 6 0 9 0;
#X connect 7 0 10 0;
#X connect 8 0 6 0;
#X connect 9 0 7 0;
#X connect 10 0 5 0;
#X connect 11 0 14 0;
#X connect 12 0 19 0;
#X connect 13 0 11 0;
#X connect 14 0 12 0;
#X connect 15 0 18 0;
#X connect 16 0 20 0;
#X connect 17 0 15 0;
#X connect 18 0 16 0;
#X connect 19 0 5 0;
#X connect 20 0 5 0;
